<svg width="140" height="47" viewBox="0 0 140 47" fill="none" xmlns="http://www.w3.org/2000/svg">
<g style="mix-blend-mode:multiply">
<path d="M76.7495 47C108.379 45.7645 135.732 36.4728 139.563 25.2642C141.386 19.9428 137.436 14.3874 129.043 9.93119C120.73 5.51943 108.451 2.57431 94.0773 1.15805C70.0924 -1.20042 41.4411 -0.0626726 21.6368 5.55202C-0.556454 11.8422 -7.70733 23.7146 9.81951 32.0166C34.1866 43.5571 80.5479 42.1171 110.378 34.2003C112.225 33.7084 114.272 31.0181 110.736 31.9544C86.0266 38.5143 50.089 40.3809 24.5911 33.3677C13.5064 30.3189 5.59905 25.7679 4.77884 20.7546C4.08605 16.4999 8.41799 12.2778 16.8111 9.22008C32.7294 3.41577 58.7051 1.87507 80.532 3.01578C92.3413 3.63207 104.135 5.12833 113.388 7.84531C124.273 11.0393 131.584 15.7118 134.092 20.6065C140.271 32.6714 112.615 43.0505 79.5048 44.3423C76.9566 44.443 74.2411 47.0948 76.7495 46.997L76.7495 47Z" fill="#FF6565"/>
</g>
</svg>
