<svg width="67" height="47" viewBox="0 0 67 47" fill="none" xmlns="http://www.w3.org/2000/svg">
<g style="mix-blend-mode:multiply">
<path d="M36.2546 47C51.1957 45.7645 64.1169 36.4728 65.9262 25.2642C66.7876 19.9428 64.9219 14.3874 60.9571 9.93119C57.03 5.51944 51.2296 2.57431 44.4399 1.15805C33.1099 -1.20042 19.5757 -0.0626681 10.2206 5.55202C-0.263043 11.8423 -3.64097 23.7146 4.63833 32.0166C16.1488 43.5571 38.0489 42.1171 52.1399 34.2003C53.0126 33.7084 53.9793 31.0181 52.3092 31.9544C40.6369 38.5143 23.6608 40.3809 11.6161 33.3677C6.37995 30.3189 2.64468 25.7679 2.25723 20.7546C1.92997 16.4999 3.97629 12.2778 7.94102 9.22009C15.4605 3.41577 27.7308 1.87507 38.0414 3.01579C43.6199 3.63207 49.1908 5.12833 53.5618 7.84531C58.7039 11.0393 62.1571 15.7118 63.342 20.6065C66.261 32.6714 53.1969 43.0505 37.5562 44.3423C36.3524 44.443 35.0697 47.0948 36.2546 46.997L36.2546 47Z" fill="#FF6565"/>
</g>
</svg>
