<svg width="26" height="26" viewBox="0 0 26 26" fill="none" xmlns="http://www.w3.org/2000/svg">
<rect width="22.5333" height="22.5333" fill="white" fill-opacity="0.01"/>
<circle cx="13" cy="12.9999" r="12" fill="black"/>
<path fill-rule="evenodd" clip-rule="evenodd" d="M12.25 13.75L12.25 17.9026H13.75L13.75 13.75L17.9026 13.75L17.9026 12.25L13.75 12.25L13.75 8.09741L12.25 8.09741L12.25 12.25L8.09739 12.25L8.09739 13.75L12.25 13.75Z" fill="white"/>
<path d="M12.25 17.9026L11.75 17.9026L11.75 18.4026L12.25 18.4026L12.25 17.9026ZM12.25 13.75L12.75 13.75L12.75 13.25H12.25V13.75ZM13.75 17.9026L13.75 18.4026L14.25 18.4026L14.25 17.9026L13.75 17.9026ZM13.75 13.75V13.25H13.25L13.25 13.75L13.75 13.75ZM17.9026 13.75L17.9026 14.25L18.4026 14.25L18.4026 13.75L17.9026 13.75ZM17.9026 12.25L18.4026 12.25L18.4026 11.75L17.9026 11.75L17.9026 12.25ZM13.75 12.25H13.25L13.25 12.75L13.75 12.75V12.25ZM13.75 8.09741H14.25L14.25 7.59741L13.75 7.59741L13.75 8.09741ZM12.25 8.09741L12.25 7.59741L11.75 7.59741L11.75 8.09741L12.25 8.09741ZM12.25 12.25L12.25 12.75H12.75L12.75 12.25H12.25ZM8.09739 12.25L8.09739 11.75L7.59739 11.75L7.59739 12.25L8.09739 12.25ZM8.09739 13.75L7.59739 13.75L7.59739 14.25L8.09739 14.25L8.09739 13.75ZM12.75 17.9026L12.75 13.75L11.75 13.75L11.75 17.9026L12.75 17.9026ZM13.75 17.4026H12.25L12.25 18.4026H13.75L13.75 17.4026ZM13.25 13.75L13.25 17.9026L14.25 17.9026L14.25 13.75L13.25 13.75ZM13.75 14.25L17.9026 14.25L17.9026 13.25L13.75 13.25L13.75 14.25ZM18.4026 13.75L18.4026 12.25L17.4026 12.25L17.4026 13.75L18.4026 13.75ZM17.9026 11.75L13.75 11.75L13.75 12.75L17.9026 12.75L17.9026 11.75ZM13.25 8.09741L13.25 12.25L14.25 12.25L14.25 8.09741L13.25 8.09741ZM12.25 8.59741H13.75L13.75 7.59741H12.25L12.25 8.59741ZM12.75 12.25L12.75 8.09741L11.75 8.09741L11.75 12.25L12.75 12.25ZM12.25 11.75L8.09739 11.75L8.09739 12.75L12.25 12.75L12.25 11.75ZM7.59739 12.25L7.59739 13.75L8.59739 13.75L8.59739 12.25L7.59739 12.25ZM8.09739 14.25L12.25 14.25L12.25 13.25H8.09739L8.09739 14.25Z" fill="white"/>
</svg>
