<svg width="24" height="24" viewBox="0 0 24 24" fill="none" xmlns="http://www.w3.org/2000/svg">
<path d="M10.4467 6.66463L9.40778 7.11727C7.80056 7.81054 7 8.15432 7 8.72728C7 9.30023 7.80056 9.64401 9.40778 10.343L10.4467 10.7956C11.455 11.2311 11.9622 11.4546 12.5 11.4546C13.0378 11.4546 13.5389 11.2368 14.5533 10.7956L15.5922 10.343C17.1995 9.64974 18 9.30023 18 8.72728C18 8.15432 17.1995 7.81054 15.5922 7.11154L14.5533 6.6589C13.545 6.22345 13.0378 6 12.5 6C11.9622 6 11.4611 6.21772 10.4467 6.6589V6.66463Z" stroke="#777777" stroke-linecap="round" stroke-linejoin="round"/>
<path d="M17.8717 11.4546C17.9572 11.5776 18 11.7068 18 11.8421C18 12.445 17.1995 12.8141 15.5922 13.5523L14.5533 14.0322C13.545 14.4936 13.0378 14.7273 12.5 14.7273C11.9622 14.7273 11.4611 14.4936 10.4467 14.0322L9.40778 13.5523C7.80056 12.8141 7 12.4512 7 11.8421C7 11.7007 7.04278 11.5776 7.12833 11.4546" stroke="#777777" stroke-linecap="round" stroke-linejoin="round"/>
<path d="M17.6211 14.7275C17.8778 14.9157 18 15.1038 18 15.3262C18 15.885 17.1995 16.2271 15.5922 16.9113L14.5533 17.356C13.545 17.7836 13.0378 18.0003 12.5 18.0003C11.9622 18.0003 11.4611 17.7836 10.4467 17.356L9.40778 16.9113C7.80056 16.2271 7 15.8907 7 15.3262C7 15.1038 7.12833 14.9157 7.37889 14.7275" stroke="#777777" stroke-linecap="round" stroke-linejoin="round"/>
</svg>
