<svg width="26" height="26" viewBox="0 0 26 26" fill="none" xmlns="http://www.w3.org/2000/svg">
<circle cx="13" cy="13" r="9.3" stroke="#999999" stroke-width="1.4"/>
<path fill-rule="evenodd" clip-rule="evenodd" d="M12 8.17946C12 8.08025 12.0802 8 12.1794 8H13.8206C13.9191 8 14 8.08025 14 8.17946V9.82054C14 9.91975 13.9191 10 13.8206 10H12.1794C12.0802 10 12 9.91975 12 9.82054V8.17946Z" fill="#999999"/>
<path fill-rule="evenodd" clip-rule="evenodd" d="M12 12.5384C12 12.2408 12.0802 12 12.1794 12H13.8206C13.9191 12 14 12.2408 14 12.5384V17.4616C14 17.7592 13.9191 18 13.8206 18H12.1794C12.0802 18 12 17.7592 12 17.4616V12.5384Z" fill="#999999"/>
</svg>
