<svg width="400" height="22" viewBox="0 0 400 22" fill="none" xmlns="http://www.w3.org/2000/svg">
<path d="M20 5C13.3333 -1.66667 6.66667 -1.66667 0 5V22H400V5C393.333 11.6667 386.667 11.6667 380 5C373.333 -1.66667 366.667 -1.66667 360 5C353.333 11.6667 346.667 11.6667 340 5C333.333 -1.66667 326.667 -1.66667 320 5C313.333 11.6667 306.667 11.6667 300 5C293.333 -1.66667 286.667 -1.66667 280 5C273.333 11.6667 266.667 11.6667 260 5C253.333 -1.66667 246.667 -1.66667 240 5C233.333 11.6667 226.667 11.6667 220 5C213.333 -1.66667 206.667 -1.66667 200 5C193.333 11.6667 186.667 11.6667 180 5C173.333 -1.66667 166.667 -1.66667 160 5C153.333 11.6667 146.667 11.6667 140 5C133.333 -1.66667 126.667 -1.66667 120 5C113.333 11.6667 106.667 11.6667 100 5C93.3333 -1.66667 86.6667 -1.66667 80 5C73.3333 11.6667 66.6667 11.6667 60 5C53.3333 -1.66667 46.6667 -1.66667 40 5C33.3333 11.6667 26.6667 11.6667 20 5Z" fill="#EB3300"/>
</svg>
